name C:/MyDriveSym/Projects/mobilecap/Data\Session20210910_0002\mocap\ForceDataProcessed\walkingTS2_forces.mot
datacolumns 19
datarows 12
range 0.39450000 0.40000000
endheader 
time	R_ground_force_vx	R_ground_force_vy	R_ground_force_vz	R_ground_force_px	R_ground_force_py	R_ground_force_pz	R_ground_torque_x	R_ground_torque_y	R_ground_torque_z	L_ground_force_vx	L_ground_force_vy	L_ground_force_vz	L_ground_force_px	L_ground_force_py	L_ground_force_pz	L_ground_torque_x	L_ground_torque_y	L_ground_torque_z	
          0.39450000	         -7.03927300	        762.86068100	        -49.83131900	          0.24012500	          0.00600000	         -0.23619000	          0.00000000	         -1.34265300	          0.00000000	          0.00000000	          0.00000000	          0.00000000	          0.65694200	          0.00000000	         -0.43299100	          0.00000000	          0.00000000	          0.00000000	
          0.39500000	         -6.85124200	        763.26040800	        -49.92659000	          0.24024500	          0.00600000	         -0.23618000	          0.00000000	         -1.34827600	          0.00000000	          0.00000000	          0.00000000	          0.00000000	          0.65694200	          0.00000000	         -0.43299100	          0.00000000	          0.00000000	          0.00000000	
          0.39550000	         -6.66304900	        763.66654000	        -50.02273200	          0.24036400	          0.00600000	         -0.23617100	          0.00000000	         -1.35393800	          0.00000000	          0.00000000	          0.00000000	          0.00000000	          0.65694200	          0.00000000	         -0.43299100	          0.00000000	          0.00000000	          0.00000000	
          0.39600000	         -6.47468300	        764.07906500	        -50.11974300	          0.24048400	          0.00600000	         -0.23616100	          0.00000000	         -1.35964100	          0.00000000	          0.00000000	          0.00000000	          0.00000000	          0.65694200	          0.00000000	         -0.43299100	          0.00000000	          0.00000000	          0.00000000	
          0.39650000	         -6.28613700	        764.49797300	        -50.21762200	          0.24060300	          0.00600000	         -0.23615200	          0.00000000	         -1.36538400	          0.00000000	          0.00000000	          0.00000000	          0.00000000	          0.65694200	          0.00000000	         -0.43299100	          0.00000000	          0.00000000	          0.00000000	
          0.39700000	         -6.09740000	        764.92325400	        -50.31636600	          0.24072200	          0.00600000	         -0.23614300	          0.00000000	         -1.37116700	          0.00000000	          0.00000000	          0.00000000	          0.00000000	          0.65694200	          0.00000000	         -0.43299100	          0.00000000	          0.00000000	          0.00000000	
          0.39750000	         -5.90846300	        765.35489600	        -50.41597300	          0.24084100	          0.00600000	         -0.23613400	          0.00000000	         -1.37699100	          0.00000000	          0.00000000	          0.00000000	          0.00000000	          0.65694200	          0.00000000	         -0.43299100	          0.00000000	          0.00000000	          0.00000000	
          0.39800000	         -5.71931800	        765.79288900	        -50.51644000	          0.24096000	          0.00600000	         -0.23612500	          0.00000000	         -1.38285600	          0.00000000	          0.00000000	          0.00000000	          0.00000000	          0.65694200	          0.00000000	         -0.43299100	          0.00000000	          0.00000000	          0.00000000	
          0.39850000	         -5.52995400	        766.23721900	        -50.61776600	          0.24107900	          0.00600000	         -0.23611600	          0.00000000	         -1.38876300	          0.00000000	          0.00000000	          0.00000000	          0.00000000	          0.65694200	          0.00000000	         -0.43299100	          0.00000000	          0.00000000	          0.00000000	
          0.39900000	         -5.34036300	        766.68787600	        -50.71994800	          0.24119800	          0.00600000	         -0.23610800	          0.00000000	         -1.39471200	          0.00000000	          0.00000000	          0.00000000	          0.00000000	          0.65694200	          0.00000000	         -0.43299100	          0.00000000	          0.00000000	          0.00000000	
          0.39950000	         -5.15053500	        767.14484600	        -50.82298400	          0.24131600	          0.00600000	         -0.23609900	          0.00000000	         -1.40070300	          0.00000000	          0.00000000	          0.00000000	          0.00000000	          0.65694200	          0.00000000	         -0.43299100	          0.00000000	          0.00000000	          0.00000000	
          0.40000000	         -4.96046200	        767.60811700	        -50.92687000	          0.24143500	          0.00600000	         -0.23609100	          0.00000000	         -1.40673700	          0.00000000	          0.00000000	          0.00000000	          0.00000000	          0.65694200	          0.00000000	         -0.43299100	          0.00000000	          0.00000000	          0.00000000	
